<svg xmlns="http://www.w3.org/2000/svg" viewBox="0 0 64 96">
  <defs>
    <linearGradient id="h03-shade" x1="0" y1="0" x2="0" y2="1">
      <stop offset="0" stop-color="#fff" stop-opacity="0.55"/>
      <stop offset="0.5" stop-color="#fff" stop-opacity="0"/>
      <stop offset="1" stop-color="#000" stop-opacity="0.3"/>
    </linearGradient>
    <radialGradient id="h03-glow" cx="0.35" cy="0.2" r="0.5">
      <stop offset="0" stop-color="#fff" stop-opacity="0.7"/>
      <stop offset="1" stop-color="#fff" stop-opacity="0"/>
    </radialGradient>
  </defs>
  <!-- キャップ -->
  <path d="M-17 2 Q-18 -12 0 -14 Q18 -12 17 2 Q18 6 14 6 Q11 -1 6 -1 Q3 -2 0 -1 Q-3 -2 -6 -1 Q-11 -1 -14 6 Q-18 6 -17 2 Z"
        fill="#F5C842" stroke="#1a1a24" stroke-width="2" stroke-linejoin="round"/>
  <!-- スパイク -->
  <path d="M-15 -8 L-12 -22 L-8 -10 L-6 -10 L-2 -24 L2 -10 L4 -10 L8 -22 L12 -10 L14 -10 L15 -8 Q14 -4 12 -6 Q8 -8 4 -6 Q0 -10 -4 -6 Q-8 -8 -12 -6 Q-14 -4 -15 -8 Z"
        fill="#F5C842" stroke="#1a1a24" stroke-width="2" stroke-linejoin="round"/>
  <!-- シェード (両方に被せる) -->
  <path d="M-17 2 Q-18 -12 0 -14 Q18 -12 17 2 Q18 6 14 6 Q11 -1 6 -1 Q3 -2 0 -1 Q-3 -2 -6 -1 Q-11 -1 -14 6 Q-18 6 -17 2 Z"
        fill="url(#h03-shade)"/>
  <path d="M-15 -8 L-12 -22 L-8 -10 L-6 -10 L-2 -24 L2 -10 L4 -10 L8 -22 L12 -10 L14 -10 L15 -8 Q14 -4 12 -6 Q8 -8 4 -6 Q0 -10 -4 -6 Q-8 -8 -12 -6 Q-14 -4 -15 -8 Z"
        fill="url(#h03-glow)"/>
</svg>
